<?xml version="1.0" standalone="no"?>
<!DOCTYPE svg PUBLIC "-//W3C//DTD SVG 20010904//EN"
 "http://www.w3.org/TR/2001/REC-SVG-20010904/DTD/svg10.dtd">
<svg version="1.0" xmlns="http://www.w3.org/2000/svg"
 width="500.000000pt" height="500.000000pt" viewBox="0 0 500.000000 500.000000"
 preserveAspectRatio="xMidYMid meet">

<g transform="translate(0.000000,500.000000) scale(0.100000,-0.100000)"
fill="#772119" stroke="none">
<path d="M0 2500 l0 -2500 2500 0 2500 0 0 2500 0 2500 -2500 0 -2500 0 0
-2500z m4700 0 l0 -2200 -2200 0 -2200 0 0 1528 c0 1417 12 2567 28 2757 l7
80 90 8 c174 15 1147 24 2703 25 l1572 2 0 -2200z"/>
<path d="M660 2475 l0 -1865 1865 0 1865 0 0 1865 0 1865 -1865 0 -1865 0 0
-1865z m550 0 l0 -1615 -150 0 -150 0 0 1615 0 1615 150 0 150 0 0 -1615z
m1470 1465 l0 -150 -430 0 -430 0 0 -430 0 -430 430 0 430 0 0 -735 0 -735
-607 2 -608 3 0 150 0 150 453 3 452 2 0 430 0 430 -455 0 -455 0 0 730 0 730
610 0 610 0 0 -150z m1460 -580 l0 -730 -605 0 -605 0 0 730 0 730 605 0 605
0 0 -730z m0 -1165 l0 -175 -442 0 -441 0 6 -187 c4 -104 7 -289 7 -412 l0
-223 288 6 c158 3 353 9 435 12 l147 6 0 -181 0 -181 -605 0 -605 0 0 755 0
755 605 0 605 0 0 -175z m-1949 -1004 c23 -19 24 -24 24 -156 0 -175 0 -175
-146 -175 -144 0 -153 12 -147 200 4 146 8 150 148 150 81 0 102 -3 121 -19z"/>
<path d="M3237 3783 c-4 -3 -7 -197 -7 -430 l0 -423 280 0 280 0 -2 428 -3
427 -271 3 c-149 1 -273 -1 -277 -5z"/>
</g>
</svg>
